<?xml version="1.0" standalone="no"?>
<!DOCTYPE svg PUBLIC "-//W3C//DTD SVG 20010904//EN"
 "http://www.w3.org/TR/2001/REC-SVG-20010904/DTD/svg10.dtd">
<svg version="1.0" xmlns="http://www.w3.org/2000/svg"
 width="2000.000000pt" height="1500.000000pt" viewBox="0 0 2000.000000 1500.000000"
 preserveAspectRatio="xMidYMid meet">

<g transform="translate(0.000000,1500.000000) scale(0.100000,-0.100000)"
fill="#000000" stroke="none">
<path d="M0 7500 l0 -7500 10000 0 10000 0 0 7500 0 7500 -10000 0 -10000 0 0
-7500z m10325 4675 c348 -40 639 -126 960 -285 857 -422 1437 -1217 1587
-2175 30 -191 33 -638 5 -815 -55 -353 -132 -602 -278 -896 -373 -756 -1066
-1318 -1879 -1524 -270 -69 -521 -96 -810 -87 -747 23 -1432 319 -1960 847
-405 404 -683 921 -793 1470 -46 227 -52 301 -51 590 0 232 4 297 22 415 81
518 283 982 604 1387 104 132 324 352 456 456 426 338 936 551 1475 616 156
19 502 20 662 1z m-3815 -6948 c43 -21 71 -88 76 -175 2 -42 11 -203 19 -357
8 -154 18 -317 21 -362 l6 -81 122 43 c66 23 168 64 225 90 109 48 191 68 242
58 16 -3 43 -21 60 -40 26 -30 30 -42 27 -80 -2 -35 -9 -50 -28 -65 -14 -10
-151 -66 -305 -124 -154 -57 -290 -112 -303 -120 l-23 -15 6 -177 c7 -212 18
-322 46 -462 12 -58 22 -142 23 -187 1 -105 -18 -137 -85 -141 -62 -3 -116 30
-145 88 -20 39 -27 91 -53 395 -17 193 -31 353 -31 358 0 14 -51 7 -90 -13
-22 -11 -59 -20 -85 -20 -39 0 -54 6 -91 36 -39 32 -44 41 -44 76 0 55 35 85
159 138 54 23 106 47 116 53 15 11 15 36 5 286 -6 151 -12 277 -14 280 -3 4
-10 105 -16 224 -13 244 -8 279 38 296 38 14 93 13 122 -2z m3320 -5 c19 -10
42 -34 52 -53 20 -42 34 -242 48 -669 9 -279 20 -468 36 -592 l7 -48 61 101
c138 226 298 353 406 320 115 -34 181 -177 211 -456 18 -168 -2 -719 -26 -744
-9 -8 -102 -7 -136 2 -37 9 -40 23 -27 124 6 49 11 189 12 313 0 182 -3 238
-17 293 -30 121 -65 167 -124 167 -31 0 -44 -8 -89 -54 -122 -126 -208 -395
-221 -688 -5 -120 -10 -154 -25 -179 -19 -30 -21 -31 -81 -27 -111 7 -157 66
-157 204 0 43 -16 329 -35 634 -19 305 -35 600 -35 656 0 55 -6 170 -14 255
-34 364 -32 429 16 449 38 15 101 11 138 -8z m6869 3 c17 -8 38 -34 51 -60 20
-41 24 -71 31 -243 11 -252 28 -552 35 -619 l5 -51 112 39 c62 22 163 63 225
90 131 58 205 74 260 56 59 -20 97 -95 76 -151 -11 -28 -65 -53 -328 -151
-143 -52 -275 -103 -293 -112 l-33 -15 0 -117 c1 -178 17 -360 46 -515 32
-170 31 -290 -1 -326 -17 -19 -28 -21 -71 -18 -31 3 -63 13 -83 27 -63 45 -68
67 -103 460 -32 355 -32 361 -54 361 -12 0 -41 -9 -65 -20 -24 -11 -65 -20
-90 -20 -41 0 -52 5 -94 44 -43 41 -47 48 -41 77 9 48 32 68 126 111 47 21
101 46 120 56 l35 17 3 160 c2 88 -4 250 -12 360 -22 284 -30 466 -22 508 5
26 15 41 34 52 35 19 95 19 131 0z m-3413 -170 c27 -8 61 -26 77 -40 15 -14
28 -27 29 -28 1 -1 5 -204 8 -451 l5 -450 174 198 c95 109 191 228 213 265 46
76 93 129 126 142 27 10 120 -21 146 -50 10 -11 20 -37 23 -58 6 -44 16 -31
-375 -502 -112 -134 -199 -248 -195 -252 5 -5 140 -22 302 -39 161 -17 301
-35 311 -40 10 -5 30 -23 44 -41 47 -55 28 -127 -40 -155 -36 -15 -126 -8
-514 41 -107 14 -198 25 -203 25 -4 0 -6 -174 -5 -386 l3 -386 -24 -19 c-16
-13 -39 -19 -76 -19 -62 0 -108 27 -139 80 -21 35 -21 44 -21 1075 0 801 3
1046 12 1067 20 41 43 46 119 23z m-9892 -155 c21 -8 26 -16 26 -45 0 -79 -61
-150 -183 -211 -39 -20 -111 -63 -158 -95 -48 -32 -125 -80 -171 -108 -127
-75 -122 -64 -115 -238 5 -138 18 -216 37 -236 4 -5 162 65 351 154 269 127
353 163 386 163 101 2 94 -76 -16 -185 -60 -59 -89 -77 -296 -182 -332 -167
-394 -201 -399 -213 -2 -7 11 -133 30 -280 19 -148 32 -283 29 -300 -12 -70
-99 -116 -175 -93 -22 7 -46 19 -54 28 -10 11 -27 113 -53 317 l-39 301 -37
33 c-20 17 -37 39 -37 49 0 9 11 40 25 69 34 73 33 128 -11 434 -39 276 -42
394 -12 424 9 9 39 19 66 22 56 5 93 -10 142 -59 25 -26 36 -30 49 -22 63 39
391 218 438 240 51 23 99 38 140 42 6 0 23 -3 37 -9z m1182 -209 c82 -50 115
-217 134 -691 22 -555 31 -728 41 -802 18 -127 -4 -168 -91 -168 -82 0 -128
35 -151 114 -12 40 -45 326 -60 521 -6 83 -15 156 -19 164 -5 9 -42 -53 -108
-178 -117 -222 -173 -310 -254 -397 -91 -97 -167 -123 -261 -90 -73 26 -77 36
-77 160 0 139 15 305 41 465 76 463 281 766 599 888 98 37 161 42 206 14z
m11458 -302 c57 -45 56 -30 83 -735 14 -359 23 -664 19 -678 -10 -40 -45 -66
-88 -66 -43 0 -97 19 -115 41 -7 8 -24 84 -38 169 -14 84 -29 160 -34 167 -5
9 -16 -9 -35 -54 -76 -189 -163 -243 -316 -197 -62 18 -144 93 -180 164 -72
142 -83 234 -71 582 6 150 11 319 12 374 2 120 13 149 71 187 74 48 168 29
216 -43 30 -44 26 -91 -16 -210 -17 -47 -38 -134 -47 -195 -20 -131 -23 -376
-7 -460 14 -67 49 -144 73 -158 48 -29 139 52 199 177 77 161 109 347 117 681
6 275 6 275 83 275 33 0 55 -6 74 -21z m-4686 -20 c55 -27 166 -129 204 -188
32 -52 37 -105 12 -157 -19 -40 -99 -121 -159 -161 -22 -15 -72 -57 -111 -93
-38 -36 -95 -83 -126 -105 -31 -22 -62 -51 -68 -64 -18 -38 -44 -321 -31 -334
17 -17 79 32 329 263 201 185 241 227 291 305 67 103 91 128 143 150 46 19 81
19 117 1 36 -19 51 -55 51 -126 0 -103 -16 -127 -174 -259 -77 -65 -211 -186
-297 -269 -246 -235 -320 -282 -459 -290 -68 -3 -80 -1 -130 25 -48 25 -59 37
-90 97 -35 68 -35 70 -34 190 1 67 6 141 12 166 11 43 10 45 -29 87 -38 41
-50 82 -31 109 10 16 48 34 70 34 32 0 48 30 105 196 105 305 166 398 287 435
43 13 72 10 118 -12z m-5520 -45 c44 -17 62 -47 62 -102 0 -61 -9 -66 -112
-73 -162 -11 -274 -66 -422 -209 -89 -85 -166 -174 -166 -191 0 -17 58 -9 290
36 308 60 401 59 473 -5 28 -25 32 -34 31 -78 -1 -69 -36 -134 -144 -272 -50
-63 -138 -178 -196 -255 -115 -152 -134 -166 -199 -145 -45 15 -95 73 -95 110
0 30 3 35 138 188 118 133 209 288 160 270 -7 -3 -99 -22 -204 -44 -188 -38
-192 -38 -295 -27 -132 15 -221 56 -252 117 -18 35 -19 44 -8 85 17 64 51 111
156 217 107 106 354 295 441 336 114 54 267 73 342 42z m3378 -44 c75 -37 74
-36 83 -252 10 -245 2 -268 -102 -268 -55 0 -94 28 -101 73 -38 270 -34 260
-78 172 -137 -273 -178 -549 -107 -714 31 -73 55 -70 135 13 82 86 186 225
230 308 19 37 44 73 55 79 26 14 122 14 148 0 39 -21 51 -42 51 -88 0 -165
-328 -532 -513 -573 -93 -21 -220 24 -301 107 -157 161 -136 523 51 848 143
250 312 361 449 295z m3470 4 c19 -9 45 -30 59 -46 23 -27 25 -38 26 -136 0
-59 4 -142 8 -186 7 -83 -1 -115 -37 -142 -21 -16 -93 -18 -126 -3 -32 15 -40
39 -61 181 -11 69 -22 115 -28 111 -5 -3 -27 -44 -49 -91 -130 -277 -162 -528
-87 -686 24 -52 40 -56 87 -23 59 41 227 256 276 353 31 61 44 73 90 84 85 19
166 -27 166 -94 -1 -87 -103 -250 -245 -391 -184 -182 -294 -224 -440 -167
-160 63 -238 199 -238 417 0 225 123 524 288 702 108 117 221 159 311 117z
m1887 2 c31 -13 64 -44 97 -94 15 -22 16 -22 65 -7 106 32 198 5 273 -80 111
-126 176 -385 138 -547 -46 -199 -212 -421 -373 -500 -157 -77 -327 -19 -408
141 -33 66 -55 160 -55 238 0 86 106 811 122 830 27 33 88 42 141 19z"/>
<path d="M9845 10854 c-295 -42 -507 -119 -720 -262 -548 -369 -807 -1044
-645 -1684 71 -283 200 -508 412 -722 65 -66 115 -122 111 -126 -5 -4 -134
-81 -288 -171 l-280 -164 800 -3 c949 -4 1014 1 1254 79 775 254 1227 1066
1035 1860 -143 592 -623 1051 -1221 1170 -104 20 -380 34 -458 23z m-380
-1043 c4 -8 155 -567 155 -577 0 -2 177 -4 393 -4 l393 0 64 203 c35 111 66
208 68 215 3 9 -97 12 -482 12 -482 0 -485 0 -496 21 -9 16 -8 25 6 40 16 18
37 19 530 19 453 0 514 -2 528 -16 9 -8 16 -18 16 -22 -1 -22 -169 -523 -179
-536 -12 -14 -63 -16 -416 -16 l-403 0 14 -46 c8 -26 19 -53 25 -60 9 -11 74
-14 333 -14 176 0 339 -5 361 -10 82 -19 142 -129 76 -138 -19 -3 -32 5 -52
30 l-28 33 -353 5 c-392 6 -391 5 -419 72 -7 18 -54 186 -104 373 l-90 340
-85 5 c-47 3 -91 9 -97 13 -14 9 -18 49 -6 60 10 11 241 8 248 -2z m335 -933
c137 -71 86 -278 -68 -278 -129 0 -197 143 -115 241 51 60 112 73 183 37z
m519 -5 c66 -50 88 -130 53 -193 -75 -137 -282 -87 -282 69 0 116 139 191 229
124z"/>
<path d="M9686 8799 c-52 -41 -21 -119 47 -119 42 0 67 26 67 68 0 64 -62 92
-114 51z"/>
<path d="M10190 8800 c-26 -26 -26 -81 -2 -103 10 -10 33 -17 50 -17 67 0 97
79 46 119 -34 26 -68 27 -94 1z"/>
<path d="M4312 4385 c-113 -97 -201 -245 -242 -407 -27 -106 -73 -378 -66
-385 6 -7 126 128 167 188 89 132 147 301 175 513 8 65 14 120 11 122 -2 2
-22 -12 -45 -31z"/>
<path d="M11276 4148 c-33 -44 -106 -171 -101 -176 2 -2 47 24 99 58 102 66
112 82 80 128 -21 31 -49 27 -78 -10z"/>
<path d="M14712 3970 c-39 -24 -105 -122 -126 -188 -38 -118 -52 -293 -32
-390 21 -95 39 -122 81 -122 28 0 45 13 128 99 67 70 105 119 128 167 32 65
34 74 34 179 0 94 -4 118 -24 163 -45 101 -117 136 -189 92z"/>
</g>
</svg>
